<svg width="19" height="19" viewBox="0 0 19 19" fill="none" xmlns="http://www.w3.org/2000/svg">
<path fill-rule="evenodd" clip-rule="evenodd" d="M12.5063 7.25314C12.5063 10.1544 10.1544 12.5063 7.25314 12.5063C4.35191 12.5063 2 10.1544 2 7.25314C2 4.35191 4.35191 2 7.25314 2C10.1544 2 12.5063 4.35191 12.5063 7.25314ZM11.6052 13.056C10.393 13.9667 8.88607 14.5063 7.25314 14.5063C3.24734 14.5063 0 11.2589 0 7.25314C0 3.24734 3.24734 0 7.25314 0C11.2589 0 14.5063 3.24734 14.5063 7.25314C14.5063 8.90482 13.9542 10.4275 13.0245 11.6469L18.8217 17.4441L17.4075 18.8583L11.6052 13.056Z" fill="#323232"/>
</svg>
